<svg xmlns="http://www.w3.org/2000/svg" viewBox="0 0 1024 1024"><defs><style>.cls-1{fill:none;}.cls-2{fill:#fff;}</style></defs><title>Covid19StatsTrasparent</title><g id="Livello_2" data-name="Livello 2"><g id="Livello_1-2" data-name="Livello 1"><rect class="cls-1" width="1024" height="1024"/><path class="cls-2" d="M512,137c-207.12,0-375,167.88-375,375S304.88,887,512,887,887,719.12,887,512,719.12,137,512,137Zm0,703.13a327.15,327.15,0,0,1-129.8-26.7L553,621.31a23.39,23.39,0,0,0,5.93-15.56V535.44A23.45,23.45,0,0,0,535.46,512c-82.76,0-170.06-86-170.93-86.88A23.42,23.42,0,0,0,348,418.25H254.21a23.45,23.45,0,0,0-23.44,23.44V582.31a23.4,23.4,0,0,0,13,21l80.79,40.41v137.6C239.52,722,183.9,623.49,183.9,512a326.87,326.87,0,0,1,31.59-140.62h85.59a23.38,23.38,0,0,0,16.57-6.87l93.75-93.75a23.42,23.42,0,0,0,6.87-16.57v-56.7A329.09,329.09,0,0,1,655.79,217c-3,2.55-6,5.25-8.81,8.09a140.65,140.65,0,0,0,99.35,240.09c2.32,0,4.64,0,7-.16,10.12,37.95,28.38,136.71-6.16,272.7a21.94,21.94,0,0,0-.61,3.82A327.09,327.09,0,0,1,512,840.13Z"/></g></g></svg>