<?xml version="1.0" encoding="utf-8"?>
<!-- Generator: Adobe Illustrator 21.0.0, SVG Export Plug-In . SVG Version: 6.00 Build 0)  -->
<svg version="1.1" id="Livello_1" xmlns="http://www.w3.org/2000/svg" xmlns:xlink="http://www.w3.org/1999/xlink" x="0px" y="0px"
	 viewBox="0 0 32 32" style="enable-background:new 0 0 32 32;" xml:space="preserve">
<style type="text/css">
	.st0{fill:#FFFFFF;}
</style>
<title>earth</title>
<path class="st0" d="M16,0C7.2,0,0,7.2,0,16s7.2,16,16,16s16-7.2,16-16S24.8,0,16,0z M16,30c-2,0-3.8-0.4-5.5-1.1l7.3-8.2
	c0.2-0.2,0.3-0.4,0.3-0.7v-3c0-0.6-0.4-1-1-1c-3.5,0-7.3-3.7-7.3-3.7C9.5,12.1,9.3,12,9,12H5c-0.6,0-1,0.4-1,1v6
	c0,0.4,0.2,0.7,0.6,0.9L8,21.6v5.9C4.4,25,2,20.8,2,16c0-2.1,0.5-4.2,1.3-6H7c0.3,0,0.5-0.1,0.7-0.3l4-4C11.9,5.5,12,5.3,12,5V2.6
	C13.3,2.2,14.6,2,16,2c2.2,0,4.3,0.5,6.1,1.4c-0.1,0.1-0.3,0.2-0.4,0.3C20.6,4.9,20,6.4,20,8s0.6,3.1,1.8,4.2
	c1.1,1.1,2.7,1.8,4.2,1.8c0.1,0,0.2,0,0.3,0c0.4,1.6,1.2,5.8-0.3,11.6c0,0.1,0,0.1,0,0.2C23.5,28.4,19.9,30,16,30L16,30z"/>
</svg>
